<?xml version="1.0" standalone="no"?>
<!DOCTYPE svg PUBLIC "-//W3C//DTD SVG 20010904//EN"
 "http://www.w3.org/TR/2001/REC-SVG-20010904/DTD/svg10.dtd">
<svg version="1.0" xmlns="http://www.w3.org/2000/svg"
 width="512.000000pt" height="512.000000pt" viewBox="0 0 512.000000 512.000000"
 preserveAspectRatio="xMidYMid meet">
<metadata>
Created by potrace 1.14, written by Peter Selinger 2001-2017
</metadata>
<g transform="translate(0.000000,512.000000) scale(0.100000,-0.100000)"
fill="#000000" stroke="none">
<path d="M2325 5069 c-579 -55 -1129 -315 -1544 -730 -987 -987 -987 -2581 0
-3568 986 -986 2577 -987 3566 -3 781 778 966 1972 457 2951 -474 911 -1457
1447 -2479 1350z m580 -907 c516 -99 789 -332 881 -753 24 -112 29 -342 10
-468 -20 -129 -69 -275 -127 -377 -58 -102 -188 -239 -295 -310 -46 -31 -84
-57 -84 -58 0 -1 157 -283 349 -627 l350 -624 -477 -3 c-261 -1 -479 1 -483 5
-5 5 -132 249 -283 543 l-275 535 -166 3 -165 2 0 -545 0 -545 -430 0 -430 0
0 1626 0 1625 758 -4 c719 -4 763 -5 867 -25z"/>
<path d="M2140 3111 l0 -401 193 0 c285 1 410 30 507 117 64 58 95 110 116
198 19 82 14 194 -11 266 -33 95 -119 162 -246 195 -47 12 -131 17 -311 21
l-248 5 0 -401z"/>
</g>
</svg>
